<?xml version="1.0" encoding="UTF-8" standalone="no"?>
<svg
   width="1500"
   height="500"
   viewBox="0 0 396.87498 132.29168"
   version="1.1"
   id="svg8"
   inkscape:version="1.1 (c68e22c387, 2021-05-23)"
   sodipodi:docname="eTecno Negro horizontal.svg"
   xmlns:inkscape="http://www.inkscape.org/namespaces/inkscape"
   xmlns:sodipodi="http://sodipodi.sourceforge.net/DTD/sodipodi-0.dtd"
   xmlns="http://www.w3.org/2000/svg"
   xmlns:svg="http://www.w3.org/2000/svg"
   xmlns:rdf="http://www.w3.org/1999/02/22-rdf-syntax-ns#"
   xmlns:cc="http://creativecommons.org/ns#"
   xmlns:dc="http://purl.org/dc/elements/1.1/">
  <defs
     id="defs2">
    <linearGradient
       x1="0"
       y1="0"
       x2="1"
       y2="0"
       gradientUnits="userSpaceOnUse"
       gradientTransform="matrix(-300.87967,667.57654,667.57654,300.87967,752.01044,256.73166)"
       spreadMethod="pad"
       id="linearGradient3647-2">
      <stop
         style="stop-opacity:1;stop-color:#01f5bd"
         offset="0"
         id="stop914" />
      <stop
         style="stop-opacity:1;stop-color:#5883ff"
         offset="0.16825809"
         id="stop916" />
      <stop
         style="stop-opacity:1;stop-color:#d61f8f"
         offset="0.472067"
         id="stop918" />
      <stop
         style="stop-opacity:1;stop-color:#ff4440"
         offset="0.773743"
         id="stop920" />
      <stop
         style="stop-opacity:1;stop-color:#ffc304"
         offset="1"
         id="stop922" />
    </linearGradient>
    <linearGradient
       x1="0"
       y1="0"
       x2="1"
       y2="0"
       gradientUnits="userSpaceOnUse"
       gradientTransform="matrix(-300.87967,667.57654,667.57654,300.87967,752.01044,256.73166)"
       spreadMethod="pad"
       id="linearGradient3647">
      <stop
         style="stop-opacity:1;stop-color:#01f5bd"
         offset="0"
         id="stop873" />
      <stop
         style="stop-opacity:1;stop-color:#5883ff"
         offset="0.16825809"
         id="stop875" />
      <stop
         style="stop-opacity:1;stop-color:#d61f8f"
         offset="0.472067"
         id="stop877" />
      <stop
         style="stop-opacity:1;stop-color:#ff4440"
         offset="0.773743"
         id="stop879" />
      <stop
         style="stop-opacity:1;stop-color:#ffc304"
         offset="1"
         id="stop881" />
    </linearGradient>
    <linearGradient
       x1="0"
       y1="0"
       x2="1"
       y2="0"
       gradientUnits="userSpaceOnUse"
       gradientTransform="matrix(-300.87967,667.57654,667.57654,300.87967,752.01044,256.73166)"
       spreadMethod="pad"
       id="linearGradient3647-2-7">
      <stop
         style="stop-opacity:1;stop-color:#01f5bd"
         offset="0"
         id="stop3637" />
      <stop
         style="stop-opacity:1;stop-color:#256eff"
         offset="0.16825809"
         id="stop3639" />
      <stop
         style="stop-opacity:1;stop-color:#46237a"
         offset="0.472067"
         id="stop3641" />
      <stop
         style="stop-opacity:1;stop-color:#ff495c"
         offset="0.68103278"
         id="stop3643" />
      <stop
         style="stop-opacity:1;stop-color:#ffc304"
         offset="1"
         id="stop3645" />
    </linearGradient>
    <linearGradient
       x1="0"
       y1="0"
       x2="1"
       y2="0"
       gradientUnits="userSpaceOnUse"
       gradientTransform="matrix(-300.87967,667.57654,667.57654,300.87967,752.01044,256.73166)"
       spreadMethod="pad"
       id="linearGradient699-5">
      <stop
         style="stop-opacity:1;stop-color:#01f5bd"
         offset="0"
         id="stop3626" />
      <stop
         style="stop-opacity:1;stop-color:#5883ff"
         offset="0.192737"
         id="stop3628" />
      <stop
         style="stop-opacity:1;stop-color:#d61f8f"
         offset="0.472067"
         id="stop3630" />
      <stop
         style="stop-opacity:1;stop-color:#ff4440"
         offset="0.773743"
         id="stop3632" />
      <stop
         style="stop-opacity:1;stop-color:#ffc304"
         offset="1"
         id="stop3634" />
    </linearGradient>
    <linearGradient
       id="linearGradient3598"
       inkscape:swatch="solid">
      <stop
         style="stop-color:#000000;stop-opacity:1;"
         offset="0"
         id="stop3596" />
    </linearGradient>
    <linearGradient
       x1="0"
       y1="0"
       x2="1"
       y2="0"
       gradientUnits="userSpaceOnUse"
       gradientTransform="matrix(-300.87967,667.57654,667.57654,300.87967,752.01044,256.73166)"
       spreadMethod="pad"
       id="linearGradient699">
      <stop
         style="stop-opacity:1;stop-color:#01f5bd"
         offset="0"
         id="stop3561" />
      <stop
         style="stop-opacity:1;stop-color:#5883ff"
         offset="0.192737"
         id="stop3563" />
      <stop
         style="stop-opacity:1;stop-color:#d61f8f"
         offset="0.472067"
         id="stop3565" />
      <stop
         style="stop-opacity:1;stop-color:#ff4440"
         offset="0.773743"
         id="stop3567" />
      <stop
         style="stop-opacity:1;stop-color:#ffc304"
         offset="1"
         id="stop3569" />
    </linearGradient>
    <clipPath
       clipPathUnits="userSpaceOnUse"
       id="clipPath683">
      <path
         d="M 469.021,904.027 V 852.28 h -95.02 c -20.081,0 -36.84,-15.33 -38.624,-35.332 v 0 L 307.095,499.945 c -2.429,-27.217 19.361,-49.008 44.689,-49.008 v 0 c 4.686,0 9.49,0.744 14.288,2.339 v 0 l 110.242,36.649 c 6.046,2.009 12.307,3.027 18.609,3.027 v 0 c 18.743,0 36.525,-9.137 47.566,-24.444 v 0 c 10.977,-15.218 13.987,-34.961 8.051,-52.811 v 0 L 516.077,312.025 c -9.678,-29.111 11.994,-59.154 42.673,-59.154 v 0 h 28.357 199.316 c 55.201,0 98.515,47.351 93.61,102.333 v 0 l -41.195,461.744 c -1.785,20.002 -18.544,35.332 -38.626,35.332 v 0 h -98.545 v 51.747 c 0,60.233 -52.182,109.238 -116.323,109.238 v 0 c -64.141,0 -116.323,-49.005 -116.323,-109.238 m 37.545,0 c 0,39.531 35.339,71.694 78.778,71.694 v 0 c 43.438,0 78.778,-32.163 78.778,-71.694 v 0 -51.747 H 587.107 506.566 Z M 701.667,771.213 v 41.889 h 98.182 L 841.01,351.723 c 1.384,-15.507 -3.641,-30.374 -14.149,-41.861 v 0 c -10.509,-11.488 -24.869,-17.814 -40.438,-17.814 v 0 H 587.107 558.75 c -1.966,0 -3.547,0.809 -4.697,2.404 v 0 c -1.151,1.594 -1.42,3.349 -0.8,5.215 v 0 l 34.461,103.666 c 9.899,29.762 4.869,62.695 -13.451,88.094 v 0 c -18.383,25.486 -48.043,40.702 -79.34,40.702 v 0 c -10.505,0 -20.922,-1.691 -30.968,-5.028 v 0 L 353.714,490.453 c -0.688,-0.228 -1.32,-0.34 -1.93,-0.34 v 0 c -1.516,0 -3.104,0.747 -4.249,1.998 v 0 c -1.475,1.614 -1.516,3.256 -1.418,4.353 v 0 l 28.25,316.638 h 94.654 v -41.889 c 0,-10.368 8.405,-18.773 18.773,-18.773 v 0 c 10.368,0 18.772,8.405 18.772,18.773 v 0 41.889 h 80.541 77.015 v -41.889 c 0,-10.368 8.405,-18.773 18.773,-18.773 v 0 c 10.368,0 18.772,8.405 18.772,18.773"
         id="path681" />
    </clipPath>
    <linearGradient
       x1="0"
       y1="0"
       x2="1"
       y2="0"
       gradientUnits="userSpaceOnUse"
       gradientTransform="matrix(-300.87967,667.57654,667.57654,300.87967,752.01044,256.73166)"
       spreadMethod="pad"
       id="linearGradient699-5-9">
      <stop
         style="stop-opacity:1;stop-color:#01f5bd"
         offset="0"
         id="stop689" />
      <stop
         style="stop-opacity:1;stop-color:#5883ff"
         offset="0.192737"
         id="stop691" />
      <stop
         style="stop-opacity:1;stop-color:#d61f8f"
         offset="0.472067"
         id="stop693" />
      <stop
         style="stop-opacity:1;stop-color:#ff4440"
         offset="0.773743"
         id="stop695" />
      <stop
         style="stop-opacity:1;stop-color:#ffc304"
         offset="1"
         id="stop697" />
    </linearGradient>
  </defs>
  <sodipodi:namedview
     id="base"
     pagecolor="#ffffff"
     bordercolor="#666666"
     borderopacity="1.0"
     inkscape:pageopacity="0.0"
     inkscape:pageshadow="2"
     inkscape:zoom="0.35"
     inkscape:cx="714.28571"
     inkscape:cy="270"
     inkscape:document-units="mm"
     inkscape:current-layer="layer2"
     inkscape:document-rotation="0"
     showgrid="false"
     showguides="true"
     inkscape:guide-bbox="true"
     units="px"
     inkscape:window-width="1366"
     inkscape:window-height="705"
     inkscape:window-x="-8"
     inkscape:window-y="-8"
     inkscape:window-maximized="1"
     inkscape:pagecheckerboard="0" />
  <metadata
     id="metadata5">
    <rdf:RDF>
      <cc:Work
         rdf:about="">
        <dc:format>image/svg+xml</dc:format>
        <dc:type
           rdf:resource="http://purl.org/dc/dcmitype/StillImage" />
      </cc:Work>
    </rdf:RDF>
  </metadata>
  <g
     inkscape:label="Capa 1"
     inkscape:groupmode="layer"
     id="layer1"
     sodipodi:insensitive="true"
     style="display:none">
    <g
       id="g677"
       transform="matrix(0.26429764,0,0,-0.26429764,-46.171972,301.92951)">
      <g
         id="g679"
         clip-path="url(#clipPath683)">
        <g
           id="g685">
          <g
             id="g687">
            <path
               d="M 469.021,904.027 V 852.28 h -95.02 c -20.081,0 -36.84,-15.33 -38.624,-35.332 v 0 L 307.095,499.945 c -2.429,-27.217 19.361,-49.008 44.689,-49.008 v 0 c 4.686,0 9.49,0.744 14.288,2.339 v 0 l 110.242,36.649 c 6.046,2.009 12.307,3.027 18.609,3.027 v 0 c 18.743,0 36.525,-9.137 47.566,-24.444 v 0 c 10.977,-15.218 13.987,-34.961 8.051,-52.811 v 0 L 516.077,312.025 c -9.678,-29.111 11.994,-59.154 42.673,-59.154 v 0 h 28.357 199.316 c 55.201,0 98.515,47.351 93.61,102.333 v 0 l -41.195,461.744 c -1.785,20.002 -18.544,35.332 -38.626,35.332 v 0 h -98.545 v 51.747 c 0,60.233 -52.182,109.238 -116.323,109.238 v 0 c -64.141,0 -116.323,-49.005 -116.323,-109.238 m 37.545,0 c 0,39.531 35.339,71.694 78.778,71.694 v 0 c 43.438,0 78.778,-32.163 78.778,-71.694 v 0 -51.747 H 587.107 506.566 Z M 701.667,771.213 v 41.889 h 98.182 L 841.01,351.723 c 1.384,-15.507 -3.641,-30.374 -14.149,-41.861 v 0 c -10.509,-11.488 -24.869,-17.814 -40.438,-17.814 v 0 H 587.107 558.75 c -1.966,0 -3.547,0.809 -4.697,2.404 v 0 c -1.151,1.594 -1.42,3.349 -0.8,5.215 v 0 l 34.461,103.666 c 9.899,29.762 4.869,62.695 -13.451,88.094 v 0 c -18.383,25.486 -48.043,40.702 -79.34,40.702 v 0 c -10.505,0 -20.922,-1.691 -30.968,-5.028 v 0 L 353.714,490.453 c -0.688,-0.228 -1.32,-0.34 -1.93,-0.34 v 0 c -1.516,0 -3.104,0.747 -4.249,1.998 v 0 c -1.475,1.614 -1.516,3.256 -1.418,4.353 v 0 l 28.25,316.638 h 94.654 v -41.889 c 0,-10.368 8.405,-18.773 18.773,-18.773 v 0 c 10.368,0 18.772,8.405 18.772,18.773 v 0 41.889 h 80.541 77.015 v -41.889 c 0,-10.368 8.405,-18.773 18.773,-18.773 v 0 c 10.368,0 18.772,8.405 18.772,18.773"
               style="fill:url(#linearGradient699-5-9);stroke:none"
               id="path701" />
          </g>
        </g>
      </g>
    </g>
  </g>
  <g
     inkscape:groupmode="layer"
     id="layer2"
     inkscape:label="Capa 2">
    <path
       id="path1550"
       style="fill:none;fill-opacity:1;stroke:#000000;stroke-width:7.0557;stroke-linecap:round;stroke-linejoin:miter;stroke-miterlimit:4;stroke-dasharray:none;stroke-opacity:1"
       d="m 59.663594,49.865125 0.12243,-20.460479 c 0,0 0.10766,-12.999596 14.2102,-12.510897 14.1026,0.488715 14.96383,12.315421 15.07148,13.977025 l -0.0313,18.994351 m -48.95397,-10.58937 h 68.357956 l 7.15551,60.958255 c -0.0756,2.56984 4.11061,15.205 -14.61552,15.34323 l -23.750186,-0.13823 c -8.19839,-0.18248 -11.01985,-0.91445 -11.13323,-6.40267 l 1.9341,-10.034947 c 0.25427,-3.34737 -0.13307,-10.325477 -7.70001,-10.516697 l -19.59975,-0.23966 c 0,0 -5.20862,0.43922 -5.05971,-5.37578 z"
       sodipodi:nodetypes="ccsccccccccccccc" />
    <g
       id="g1607"
       style="fill:#000000;fill-opacity:1;stroke:none;stroke-opacity:1"
       transform="translate(110.97383,-99.029763)">
      <g
         id="g3699"
         style="fill:#000000;fill-opacity:1;stroke:none;stroke-opacity:1">
        <g
           id="g8562"
           style="fill:#000000;fill-opacity:1;stroke:none;stroke-opacity:1">
          <g
             aria-label="T"
             id="text1554"
             style="font-style:normal;font-variant:normal;font-weight:normal;font-stretch:normal;font-size:12.5874px;line-height:1.25;font-family:pop;-inkscape-font-specification:pop;fill:#000000;fill-opacity:1;stroke:none;stroke-width:0.314685;stroke-opacity:1"
             transform="translate(11.112501)">
            <path
               d="m 110.51635,127.43375 -2.41258,14.16082 H 88.488405 l -10.4895,59.47547 H 60.061861 L 70.55136,141.59457 H 51.040891 l 2.51748,-14.16082 z"
               style="font-style:italic;font-variant:normal;font-weight:bold;font-stretch:normal;font-size:104.895px;font-family:Poppins;-inkscape-font-specification:'Poppins Bold Italic';fill:#000000;fill-opacity:1;stroke:none;stroke-width:0.314685;stroke-opacity:1"
               id="path3665" />
          </g>
          <g
             aria-label="ecno"
             id="text1560"
             style="font-style:normal;font-weight:normal;font-size:12.5874px;line-height:1.25;font-family:sans-serif;fill:#000000;fill-opacity:1;stroke:none;stroke-width:0.314685;stroke-opacity:1"
             transform="translate(11.112501)">
            <path
               d="m 122.15797,182.96392 q 0,1.88812 -0.25175,3.39861 H 96.416659 q 0.314686,3.77623 2.643362,5.9161 2.328679,2.13986 5.727289,2.13986 4.9091,0 6.98603,-4.21679 h 9.50351 q -1.51049,5.03497 -5.79022,8.30771 -4.27973,3.2098 -10.51051,3.2098 -5.034978,0 -9.062959,-2.20281 -3.965043,-2.26574 -6.230783,-6.35665 -2.202802,-4.09092 -2.202802,-9.44058 0,-5.4126 2.202802,-9.50352 2.202802,-4.09092 6.167846,-6.29372 3.965043,-2.2028 9.125896,-2.2028 4.97204,0 8.87414,2.13986 3.96505,2.13987 6.10491,6.10491 2.2028,3.90211 2.2028,9.00002 z m -9.12589,-2.51749 q -0.0629,-3.39861 -2.45455,-5.4126 -2.39162,-2.07692 -5.85316,-2.07692 -3.27274,0 -5.538475,2.01399 -2.202802,1.95105 -2.706299,5.47553 z"
               style="font-style:normal;font-variant:normal;font-weight:600;font-stretch:normal;font-size:62.9372px;font-family:Poppins;-inkscape-font-specification:'Poppins Semi-Bold';fill:#000000;fill-opacity:1;stroke:none;stroke-width:0.314685;stroke-opacity:1"
               id="path3668" />
            <path
               d="m 126.31175,183.71917 q 0,-5.4126 2.2028,-9.44058 2.2028,-4.09092 6.10491,-6.29372 3.9021,-2.26574 8.93708,-2.26574 6.48253,0 10.69932,3.27273 4.27973,3.2098 5.72729,9.06296 h -9.50352 q -0.75525,-2.26574 -2.58043,-3.52448 -1.76224,-1.32169 -4.4056,-1.32169 -3.77623,0 -5.97903,2.76924 -2.20281,2.7063 -2.20281,7.74128 0,4.97204 2.20281,7.74127 2.2028,2.7063 5.97903,2.7063 5.34966,0 6.98603,-4.78323 h 9.50352 q -1.44756,5.66435 -5.72729,9.00002 -4.27973,3.33568 -10.69932,3.33568 -5.03498,0 -8.93708,-2.20281 -3.90211,-2.26574 -6.10491,-6.29372 -2.2028,-4.09091 -2.2028,-9.50351 z"
               style="font-style:normal;font-variant:normal;font-weight:600;font-stretch:normal;font-size:62.9372px;font-family:Poppins;-inkscape-font-specification:'Poppins Semi-Bold';fill:#000000;fill-opacity:1;stroke:none;stroke-width:0.314685;stroke-opacity:1"
               id="path3670" />
            <path
               d="m 185.78736,165.78207 q 6.23078,0 10.06995,3.96504 3.83917,3.90211 3.83917,10.95107 v 20.45459 h -8.81121 v -19.25878 q 0,-4.15386 -2.07693,-6.35666 -2.07692,-2.26574 -5.66435,-2.26574 -3.65035,0 -5.79022,2.26574 -2.07692,2.2028 -2.07692,6.35666 v 19.25878 h -8.81121 v -34.86721 h 8.81121 v 4.34267 q 1.76224,-2.26574 4.46854,-3.52448 2.76923,-1.32168 6.04197,-1.32168 z"
               style="font-style:normal;font-variant:normal;font-weight:600;font-stretch:normal;font-size:62.9372px;font-family:Poppins;-inkscape-font-specification:'Poppins Semi-Bold';fill:#000000;fill-opacity:1;stroke:none;stroke-width:0.314685;stroke-opacity:1"
               id="path3672" />
            <path
               d="m 223.54963,201.71921 q -5.03498,0 -9.06296,-2.20281 -4.02798,-2.26574 -6.35666,-6.35665 -2.26573,-4.09092 -2.26573,-9.44058 0,-5.34966 2.32867,-9.44058 2.39162,-4.09092 6.48253,-6.29372 4.09092,-2.26574 9.1259,-2.26574 5.03497,0 9.12589,2.26574 4.09092,2.2028 6.4196,6.29372 2.39161,4.09092 2.39161,9.44058 0,5.34966 -2.45455,9.44058 -2.39162,4.09091 -6.54547,6.35665 -4.09092,2.20281 -9.18883,2.20281 z m 0,-7.67834 q 2.39161,0 4.46854,-1.13287 2.13986,-1.19581 3.39861,-3.52449 1.25874,-2.32867 1.25874,-5.66434 0,-4.97204 -2.64336,-7.6154 -2.58043,-2.7063 -6.35666,-2.7063 -3.77623,0 -6.35665,2.7063 -2.51749,2.64336 -2.51749,7.6154 0,4.97204 2.45455,7.67834 2.51749,2.64336 6.29372,2.64336 z"
               style="font-style:normal;font-variant:normal;font-weight:600;font-stretch:normal;font-size:62.9372px;font-family:Poppins;-inkscape-font-specification:'Poppins Semi-Bold';fill:#000000;fill-opacity:1;stroke:none;stroke-width:0.314685;stroke-opacity:1"
               id="path3674" />
          </g>
          <g
             aria-label="e-"
             id="text4904"
             style="font-size:62.5373px;line-height:1.25;font-family:'Times New Roman';-inkscape-font-specification:'Times New Roman, ';fill:#000000;fill-opacity:1;stroke:none;stroke-width:0.312686;stroke-opacity:1"
             transform="translate(8.4666671)">
            <path
               d="m 36.651451,183.00481 q 0,1.87612 -0.250149,3.37702 H 11.073695 q 0.312687,3.75224 2.626567,5.87851 2.31388,2.12626 5.690894,2.12626 4.87791,0 6.941641,-4.19 h 9.443132 q -1.500895,5.00299 -5.753432,8.25493 -4.252536,3.1894 -10.443729,3.1894 -5.002984,0 -9.005371,-2.18881 -3.9398499,-2.25134 -6.1911927,-6.31626 -2.1888055,-4.06493 -2.1888055,-9.3806 0,-5.37821 2.1888055,-9.44313 2.1888055,-4.06492 6.1286557,-6.25373 3.93985,-2.18881 9.067908,-2.18881 4.940447,0 8.817759,2.12627 3.93985,2.12627 6.066119,6.06612 2.188805,3.87731 2.188805,8.94283 z m -9.067908,-2.50149 q -0.06254,-3.37701 -2.438955,-5.37821 -2.376418,-2.06373 -5.815969,-2.06373 -3.25194,0 -5.503282,2.0012 -2.188806,1.93865 -2.689104,5.44074 z"
               style="font-weight:600;font-family:Poppins;-inkscape-font-specification:'Poppins Semi-Bold';fill:#000000;fill-opacity:1;stroke:none;stroke-opacity:1"
               id="path8088" />
            <path
               d="m 61.544574,175.06258 v 7.3794 H 43.155246 v -7.3794 z"
               style="font-weight:600;font-family:Poppins;-inkscape-font-specification:'Poppins Semi-Bold';fill:#000000;fill-opacity:1;stroke:none;stroke-opacity:1"
               id="path8090"
               sodipodi:nodetypes="ccccc" />
          </g>
        </g>
      </g>
    </g>
  </g>
</svg>
